<svg width="510" height="510" viewBox="0 0 510 510" fill="none" xmlns="http://www.w3.org/2000/svg">
<g clip-path="url(#clip0_144_97)">
<path d="M344.954 319.733C338.755 327.213 329.521 327.213 323.321 319.733C310.088 303.77 287.842 303.77 274.609 319.733C271.51 323.472 272.028 329.015 275.767 332.115C279.505 335.214 285.048 334.696 288.148 330.957C294.348 323.478 303.581 323.478 309.781 330.957C323.014 346.921 345.26 346.921 358.493 330.957C364.693 323.478 373.927 323.478 380.126 330.957C383.225 334.696 388.768 335.215 392.508 332.115C396.246 329.016 396.765 323.473 393.665 319.733C380.433 303.77 358.187 303.77 344.954 319.733Z" fill="black"/>
<path d="M344.954 372.491C338.755 379.971 329.521 379.971 323.321 372.491C310.088 356.528 287.842 356.528 274.609 372.491C271.51 376.229 272.028 381.773 275.767 384.873C279.505 387.971 285.048 387.453 288.148 383.715C294.348 376.235 303.581 376.235 309.781 383.715C323.014 399.678 345.26 399.678 358.493 383.715C364.693 376.235 373.927 376.235 380.126 383.715C383.225 387.453 388.768 387.972 392.508 384.873C396.246 381.774 396.765 376.23 393.665 372.491C380.433 356.529 358.187 356.529 344.954 372.491Z" fill="black"/>
<path d="M424.553 61.5515H85.447C72.2527 61.5515 61.5557 72.2526 61.5557 85.4508V424.548C61.5557 437.747 72.2527 448.447 85.447 448.447H424.553C437.754 448.447 448.452 437.748 448.452 424.548V85.4508C448.452 72.2506 437.754 61.5515 424.553 61.5515ZM430.866 424.549C430.866 428.037 428.041 430.862 424.553 430.862H85.447C81.9666 430.862 79.1427 428.036 79.1427 424.549V85.4508C79.1427 81.9635 81.9676 79.1375 85.447 79.1375H424.553C428.041 79.1375 430.866 81.9625 430.866 85.4508V424.549Z" fill="black"/>
<path d="M510 149.483C510 135.579 503.494 122.736 492.645 114.486C503.494 105.885 510 93.0411 510 79.1377C510 57.9109 494.855 39.8278 474.226 35.9321C470.171 15.1446 452.089 0 430.862 0C416.959 0 404.115 6.50648 395.866 17.3549C387.264 6.50648 374.421 0 360.517 0C346.614 0 333.77 6.50648 325.52 17.3549C316.919 6.50648 304.076 0 290.172 0C276.269 0 263.425 6.50648 255.175 17.3549C246.574 6.50648 233.731 0 219.828 0C205.924 0 193.081 6.50648 184.831 17.3549C176.23 6.50648 163.386 0 149.483 0C135.579 0 122.736 6.50648 114.486 17.3549C105.885 6.50648 93.0411 0 79.1377 0C57.9109 0 39.8278 15.1446 35.9321 35.7737C15.1446 39.8278 0 57.9109 0 79.1377C0 93.0411 6.50648 105.885 17.3549 114.134C6.50648 122.736 0 135.579 0 149.483C0 163.386 6.50648 176.23 17.3549 184.48C6.50648 193.081 0 205.924 0 219.828C0 233.731 6.50648 246.575 17.3549 254.825C6.50648 263.426 0 276.269 0 290.172C0 304.076 6.50648 316.919 17.3549 325.169C6.50648 333.77 0 346.614 0 360.517C0 374.421 6.50648 387.264 17.3549 395.514C6.50648 404.115 0 416.959 0 430.862C0 452.089 15.1446 470.172 35.7737 474.068C39.8298 494.849 57.9149 510 79.1377 510C93.0411 510 105.885 503.494 114.134 492.645C122.736 503.494 135.579 510 149.483 510C163.386 510 176.23 503.494 184.48 492.645C193.081 503.494 205.924 510 219.828 510C233.731 510 246.575 503.494 254.825 492.645C263.426 503.494 276.269 510 290.172 510C304.076 510 316.919 503.494 325.169 492.645C333.77 503.494 346.614 510 360.517 510C374.421 510 387.264 503.494 395.514 492.645C404.115 503.494 416.959 510 430.862 510C452.085 510 470.171 494.849 474.068 474.227C494.855 470.171 510 452.089 510 430.862C510 416.959 503.494 404.115 492.645 395.866C503.494 387.264 510 374.421 510 360.517C510 346.614 503.494 333.77 492.645 325.52C503.494 316.919 510 304.076 510 290.172C510 276.269 503.494 263.425 492.645 255.175C503.494 246.574 510 233.731 510 219.828C510 205.924 503.494 193.081 492.645 184.831C503.494 176.23 510 163.386 510 149.483ZM481.988 128.475C488.519 133.442 492.414 141.131 492.414 149.483C492.414 157.835 488.519 165.524 482.001 170.48C472.549 177.677 472.549 191.616 481.989 198.82C488.52 203.787 492.415 211.476 492.415 219.828C492.415 228.18 488.52 235.869 482.002 240.826C472.551 248.038 472.551 261.962 481.99 269.165C488.521 274.132 492.416 281.821 492.416 290.173C492.416 298.525 488.521 306.214 482.003 311.171C472.552 318.383 472.552 332.307 481.991 339.511C488.522 344.477 492.417 352.166 492.417 360.518C492.417 368.87 488.522 376.559 482.004 381.516C472.553 388.729 472.553 402.652 481.992 409.856C488.523 414.822 492.418 422.511 492.418 430.863C492.418 443.597 483.326 454.455 470.966 456.789C463.738 458.137 458.14 463.736 456.788 470.982C454.457 483.317 443.596 492.415 430.866 492.415C422.514 492.415 414.825 488.52 409.869 482.002C402.671 472.548 388.718 472.548 381.523 481.998C376.562 488.521 368.874 492.416 360.522 492.416C352.17 492.416 344.481 488.521 339.525 482.003C332.327 472.549 318.373 472.549 311.179 481.999C306.218 488.522 298.53 492.417 290.177 492.417C281.825 492.417 274.136 488.522 269.179 482.004C261.982 472.55 248.028 472.55 240.834 482C235.873 488.523 228.185 492.418 219.832 492.418C211.479 492.418 203.791 488.523 198.834 482.005C191.636 472.551 177.683 472.551 170.488 482.001C165.528 488.524 157.84 492.419 149.487 492.419C141.135 492.419 133.446 488.524 128.489 482.006C121.291 472.552 107.338 472.552 100.143 482.002C95.1827 488.525 87.4949 492.42 79.1416 492.42C66.4116 492.42 55.5512 483.323 53.2163 470.967C51.8676 463.74 46.2695 458.142 39.023 456.79C26.6834 454.459 17.59 443.602 17.59 430.868C17.59 422.516 21.4847 414.827 28.0032 409.871C37.4541 402.658 37.4541 388.735 28.0151 381.531C21.4837 376.564 17.589 368.875 17.589 360.523C17.589 352.171 21.4837 344.482 28.0022 339.526C37.4531 332.313 37.4531 318.389 28.0141 311.186C21.4828 306.219 17.588 298.53 17.588 290.178C17.588 281.826 21.4828 274.137 28.0012 269.18C37.4521 261.968 37.4521 248.044 28.0131 240.841C21.4818 235.874 17.587 228.185 17.587 219.833C17.587 211.481 21.4818 203.792 28.0002 198.835C37.4521 191.622 37.4521 177.683 28.0042 170.489C21.4808 165.529 17.586 157.841 17.586 149.489C17.586 141.137 21.4808 133.448 27.9992 128.491C37.4511 121.277 37.4511 107.339 28.0032 100.145C21.4798 95.1847 17.585 87.4969 17.585 79.1446C17.585 66.4106 26.6774 55.5531 39.0369 53.2193C46.2646 51.8706 51.8626 46.2715 53.2153 39.026C55.5462 26.6863 66.4026 17.593 79.1367 17.593C87.4889 17.593 95.1778 21.4877 100.134 28.0062C107.347 37.4571 121.27 37.4571 128.474 28.0181C133.441 21.4867 141.13 17.592 149.482 17.592C157.834 17.592 165.523 21.4867 170.479 28.0052C177.692 37.4561 191.616 37.4561 198.819 28.0171C203.786 21.4857 211.475 17.591 219.827 17.591C228.179 17.591 235.868 21.4857 240.825 28.0042C248.037 37.4551 261.961 37.4551 269.164 28.0161C274.131 21.4847 281.82 17.59 290.172 17.59C298.524 17.59 306.213 21.4847 311.17 28.0032C318.382 37.4541 332.306 37.4541 339.51 28.0151C344.476 21.4837 352.165 17.589 360.517 17.589C368.869 17.589 376.558 21.4837 381.515 28.0022C388.728 37.4531 402.651 37.4531 409.855 28.0141C414.821 21.4828 422.509 17.588 430.862 17.588C443.596 17.588 454.453 26.6804 456.788 39.0399C458.136 46.2676 463.734 51.8656 470.981 53.2183C483.321 55.5492 492.414 66.4056 492.414 79.1396C492.414 87.4919 488.519 95.1807 482.001 100.137C472.548 107.333 472.548 121.27 481.988 128.475Z" fill="black"/>
<path d="M245.936 320.064C243.702 298.283 226.771 281.379 205.015 281.379C193.506 281.379 182.924 285.481 175.367 292.675C168.133 285.436 158.111 281.379 146.709 281.379C124.953 281.379 108.021 298.283 105.788 320.064C105.744 320.343 105.702 320.659 105.666 321.01C105.273 324.706 105.589 329.464 107.032 335.143C110.04 347.034 117.043 357.803 126.864 366.087L170.217 402.429C173.486 405.168 178.248 405.168 181.516 402.428L224.839 366.103C234.679 357.804 241.682 347.037 244.693 335.145C246.135 329.466 246.451 324.707 246.058 321.011C246.021 320.66 245.979 320.344 245.936 320.064ZM227.646 330.823C225.564 339.046 220.608 346.666 213.521 352.643L175.865 384.214L138.182 352.626C131.114 346.665 126.159 339.045 124.078 330.82C123.154 327.183 122.977 324.519 123.153 322.869C123.159 322.812 123.262 322.072 123.262 322.072C124.527 308.798 134.309 298.966 146.709 298.966C156.378 298.966 163.639 303.488 167.214 311.385C170.333 318.274 180.117 318.274 183.235 311.385C186.659 303.824 194.971 298.966 205.016 298.966C217.415 298.966 227.198 308.798 228.463 322.072L228.607 323.025C228.746 324.521 228.569 327.188 227.646 330.823Z" fill="black"/>
</g>
<defs>
<clipPath id="clip0_144_97">
<rect width="510" height="510" fill="white"/>
</clipPath>
</defs>
</svg>
